<?xml version="1.0" encoding="utf-8"?>
<!-- Generator: Adobe Illustrator 16.0.0, SVG Export Plug-In . SVG Version: 6.00 Build 0)  -->
<!DOCTYPE svg PUBLIC "-//W3C//DTD SVG 1.1//EN" "http://www.w3.org/Graphics/SVG/1.1/DTD/svg11.dtd">
<svg version="1.1" id="Layer_1" xmlns="http://www.w3.org/2000/svg" xmlns:xlink="http://www.w3.org/1999/xlink" x="0px" y="0px"
	 width="917px" height="155px" viewBox="0 0 917 155" enable-background="new 0 0 917 155" xml:space="preserve">
<text transform="matrix(1 0 0 1 59.7363 138.3691)" stroke="#231F20" stroke-width="0.5669" stroke-miterlimit="10" font-family="'Adore'" font-size="55.1097">in</text>
<text transform="matrix(1 0 0 1 88.9443 138.3691)" stroke="#231F20" stroke-width="0.5669" stroke-miterlimit="10" font-family="'Adore'" font-size="55.1097" letter-spacing="1"> </text>
<text transform="matrix(1 0 0 1 103.4385 138.3691)" stroke="#231F20" stroke-width="0.5669" stroke-miterlimit="10" font-family="'Adore'" font-size="55.1097">partn</text>
<text transform="matrix(1 0 0 1 197.5078 138.3691)" stroke="#231F20" stroke-width="0.5669" stroke-miterlimit="10" font-family="'Adore'" font-size="55.1097" letter-spacing="-1">e</text>
<text transform="matrix(1 0 0 1 212.9385 138.3691)" stroke="#231F20" stroke-width="0.5669" stroke-miterlimit="10" font-family="'Adore'" font-size="55.1097">rshi</text>
<text transform="matrix(1 0 0 1 268.873 138.3691)" stroke="#231F20" stroke-width="0.5669" stroke-miterlimit="10" font-family="'Adore'" font-size="55.1097" letter-spacing="3">p</text>
<text transform="matrix(1 0 0 1 294.8291 138.3691)" stroke="#231F20" stroke-width="0.5669" stroke-miterlimit="10" font-family="'Adore'" font-size="55.1097" letter-spacing="1"> </text>
<text transform="matrix(1 0 0 1 309.3223 138.3691)" stroke="#231F20" stroke-width="0.5669" stroke-miterlimit="10" font-family="'Adore'" font-size="55.1097">with</text>
<g>
	
		<path fill="#FFF200" stroke="#000000" stroke-width="5.9528" stroke-linecap="round" stroke-linejoin="round" stroke-miterlimit="10" d="
		M438.976,104.686l-4.91,37.11h-14.659l-5.576-37.11h10.177c1.184,10.223,2.027,18.871,2.533,25.947
		c0.499-7.15,1.028-13.501,1.588-19.047l0.67-6.9H438.976z"/>
	
		<path fill="#FFF200" stroke="#000000" stroke-width="5.9528" stroke-linecap="round" stroke-linejoin="round" stroke-miterlimit="10" d="
		M449.911,104.686v4.836h-9.536v-4.836H449.911z M449.911,111.378v30.418h-9.536v-30.418H449.911z"/>
	
		<path fill="#FFF200" stroke="#000000" stroke-width="5.9528" stroke-linecap="round" stroke-linejoin="round" stroke-miterlimit="10" d="
		M473.75,122.861h-8.733v-3.506c0-1.224-0.1-2.051-0.298-2.487c-0.199-0.437-0.564-0.653-1.1-0.653
		c-0.536,0-0.896,0.191-1.077,0.573c-0.185,0.382-0.275,1.237-0.275,2.567v14.349c0,1.085,0.139,1.899,0.413,2.442
		c0.273,0.541,0.68,0.812,1.215,0.812c0.625,0,1.05-0.283,1.271-0.848c0.221-0.565,0.332-1.635,0.332-3.209v-3.623h8.252
		c-0.016,2.431-0.104,4.253-0.263,5.468c-0.162,1.215-0.675,2.46-1.538,3.735c-0.862,1.276-1.989,2.24-3.38,2.889
		c-1.393,0.648-3.109,0.975-5.156,0.975c-2.613,0-4.686-0.447-6.213-1.342c-1.528-0.895-2.608-2.146-3.243-3.759
		s-0.951-3.899-0.951-6.865v-8.642c0-2.584,0.26-4.531,0.779-5.846c0.519-1.313,1.627-2.486,3.324-3.519
		c1.696-1.032,3.759-1.547,6.188-1.547c2.413,0,4.477,0.512,6.188,1.536c1.711,1.023,2.851,2.314,3.416,3.873
		C473.467,117.797,473.75,120.005,473.75,122.861z"/>
	
		<path fill="#FFF200" stroke="#000000" stroke-width="5.9528" stroke-linecap="round" stroke-linejoin="round" stroke-miterlimit="10" d="
		M486.312,107.32v4.791h2.497v4.814h-2.497v16.275c0,2.002,0.104,3.117,0.31,3.347c0.207,0.229,1.065,0.345,2.58,0.345v4.904h-3.738
		c-2.108,0-3.613-0.088-4.515-0.263c-0.902-0.177-1.696-0.581-2.385-1.216c-0.688-0.633-1.115-1.359-1.282-2.178
		c-0.17-0.816-0.254-2.738-0.254-5.765v-15.45h-1.993v-4.814h1.993v-4.791H486.312L486.312,107.32z"/>
	
		<path fill="#FFF200" stroke="#000000" stroke-width="5.9528" stroke-linecap="round" stroke-linejoin="round" stroke-miterlimit="10" d="
		M511.849,122.061v7.449c0,2.735-0.137,4.741-0.411,6.018c-0.275,1.275-0.863,2.468-1.765,3.576
		c-0.903,1.107-2.061,1.926-3.474,2.453c-1.414,0.526-3.036,0.791-4.871,0.791c-2.049,0-3.783-0.227-5.204-0.677
		s-2.525-1.131-3.312-2.04c-0.787-0.908-1.349-2.009-1.686-3.301c-0.336-1.291-0.504-3.229-0.504-5.811v-7.793
		c0-2.828,0.306-5.035,0.917-6.625s1.712-2.865,3.301-3.828c1.59-0.963,3.621-1.444,6.097-1.444c2.08,0,3.863,0.31,5.354,0.928
		c1.49,0.619,2.64,1.425,3.449,2.419c0.811,0.993,1.363,2.018,1.662,3.071C511.7,118.301,511.849,119.906,511.849,122.061z
		 M502.589,119.768c0-1.559-0.085-2.541-0.252-2.945c-0.169-0.404-0.528-0.607-1.078-0.607s-0.917,0.203-1.101,0.607
		s-0.275,1.387-0.275,2.945v13.73c0,1.438,0.093,2.373,0.275,2.809c0.184,0.436,0.543,0.652,1.079,0.652
		c0.55,0,0.913-0.199,1.088-0.596c0.175-0.397,0.264-1.254,0.264-2.568V119.768z"/>
	
		<path fill="#FFF200" stroke="#000000" stroke-width="5.9528" stroke-linecap="round" stroke-linejoin="round" stroke-miterlimit="10" d="
		M524.205,111.378l-0.366,4c1.345-2.864,3.293-4.381,5.846-4.55v10.705c-1.695,0-2.94,0.229-3.736,0.688
		c-0.794,0.459-1.283,1.098-1.467,1.914c-0.185,0.818-0.275,2.702-0.275,5.65v12.011h-9.261v-30.418H524.205z"/>
	
		<path fill="#FFF200" stroke="#000000" stroke-width="5.9528" stroke-linecap="round" stroke-linejoin="round" stroke-miterlimit="10" d="
		M541.329,104.686v4.836h-9.535v-4.836H541.329z M541.329,111.378v30.418h-9.535v-30.418H541.329z"/>
	
		<path fill="#FFF200" stroke="#000000" stroke-width="5.9528" stroke-linecap="round" stroke-linejoin="round" stroke-miterlimit="10" d="
		M552.976,123.161h-8.688v-2.041c0-2.353,0.271-4.167,0.813-5.444c0.543-1.275,1.632-2.402,3.267-3.381
		c1.636-0.979,3.76-1.467,6.373-1.467c3.134,0,5.493,0.554,7.084,1.662c1.589,1.107,2.543,2.468,2.864,4.08
		c0.32,1.613,0.481,4.932,0.481,9.959v15.267h-9.01v-2.711c-0.565,1.087-1.295,1.903-2.188,2.446s-1.959,0.814-3.196,0.814
		c-1.62,0-3.106-0.455-4.459-1.363c-1.354-0.909-2.029-2.9-2.029-5.973v-2.498c0-2.277,0.359-3.828,1.079-4.652
		c0.718-0.825,2.497-1.789,5.34-2.889c3.041-1.191,4.668-1.994,4.883-2.408c0.214-0.412,0.321-1.252,0.321-2.521
		c0-1.589-0.12-2.625-0.355-3.106c-0.237-0.48-0.631-0.722-1.182-0.722c-0.626,0-1.016,0.203-1.168,0.606
		c-0.153,0.406-0.229,1.457-0.229,3.152L552.976,123.161L552.976,123.161z M555.91,127.333c-1.483,1.085-2.343,1.994-2.579,2.728
		c-0.237,0.733-0.355,1.789-0.355,3.164c0,1.574,0.104,2.59,0.311,3.049s0.615,0.688,1.226,0.688c0.581,0,0.959-0.179,1.137-0.539
		c0.175-0.359,0.264-1.303,0.264-2.831v-6.258H555.91z"/>
	
		<path fill="#FFF200" stroke="#000000" stroke-width="5.9528" stroke-linecap="round" stroke-linejoin="round" stroke-miterlimit="10" d="
		M599.533,120.846h-9.649v-6.451c0-1.875-0.104-3.045-0.31-3.511c-0.207-0.465-0.662-0.698-1.364-0.698
		c-0.794,0-1.299,0.283-1.513,0.849c-0.215,0.565-0.321,1.788-0.321,3.667v17.238c0,1.803,0.106,2.979,0.321,3.529
		c0.214,0.551,0.693,0.825,1.443,0.825c0.719,0,1.188-0.276,1.409-0.828c0.222-0.551,0.333-1.846,0.333-3.883v-4.665h9.649v1.446
		c0,3.841-0.271,6.565-0.813,8.172s-1.742,3.015-3.598,4.224c-1.858,1.209-4.146,1.813-6.866,1.813
		c-2.828,0-5.158-0.513-6.991-1.536c-1.834-1.023-3.049-2.441-3.645-4.252c-0.598-1.811-0.896-4.535-0.896-8.172V117.77
		c0-2.674,0.092-4.679,0.275-6.017c0.184-1.337,0.729-2.625,1.639-3.862c0.91-1.236,2.17-2.211,3.783-2.923
		c1.611-0.71,3.464-1.065,5.558-1.065c2.844,0,5.188,0.55,7.037,1.648c1.851,1.1,3.063,2.469,3.646,4.109
		c0.582,1.64,0.871,4.193,0.871,7.656L599.533,120.846L599.533,120.846z"/>
	
		<path fill="#FFF200" stroke="#000000" stroke-width="5.9528" stroke-linecap="round" stroke-linejoin="round" stroke-miterlimit="10" d="
		M623.718,122.061v7.449c0,2.735-0.138,4.741-0.412,6.018c-0.274,1.275-0.863,2.468-1.766,3.576
		c-0.902,1.107-2.06,1.926-3.472,2.453c-1.414,0.526-3.038,0.791-4.872,0.791c-2.048,0-3.782-0.227-5.203-0.677
		s-2.525-1.131-3.312-2.04c-0.788-0.908-1.351-2.009-1.686-3.301c-0.336-1.291-0.505-3.229-0.505-5.811v-7.793
		c0-2.828,0.307-5.035,0.918-6.625c0.609-1.59,1.711-2.865,3.3-3.828c1.59-0.963,3.622-1.444,6.098-1.444
		c2.078,0,3.862,0.31,5.354,0.928c1.489,0.619,2.64,1.425,3.45,2.419c0.81,0.993,1.362,2.018,1.661,3.071
		S623.718,119.906,623.718,122.061z M614.457,119.768c0-1.559-0.085-2.541-0.252-2.945c-0.168-0.404-0.527-0.607-1.077-0.607
		s-0.917,0.203-1.101,0.607c-0.185,0.404-0.275,1.387-0.275,2.945v13.73c0,1.438,0.092,2.373,0.275,2.809
		c0.183,0.435,0.542,0.652,1.076,0.652c0.551,0,0.913-0.199,1.09-0.596c0.175-0.397,0.264-1.254,0.264-2.568V119.768
		L614.457,119.768z"/>
	
		<path fill="#FFF200" stroke="#000000" stroke-width="5.9528" stroke-linecap="round" stroke-linejoin="round" stroke-miterlimit="10" d="
		M636.349,104.686v37.11h-9.534v-37.11H636.349z"/>
	
		<path fill="#FFF200" stroke="#000000" stroke-width="5.9528" stroke-linecap="round" stroke-linejoin="round" stroke-miterlimit="10" d="
		M649.256,104.686v37.11h-9.536v-37.11H649.256z"/>
	
		<path fill="#FFF200" stroke="#000000" stroke-width="5.9528" stroke-linecap="round" stroke-linejoin="round" stroke-miterlimit="10" d="
		M673.6,127.126h-11.985v6.578c0,1.375,0.099,2.262,0.297,2.66c0.198,0.396,0.581,0.596,1.146,0.596c0.704,0,1.174-0.265,1.41-0.791
		s0.356-1.547,0.356-3.06v-4.012h8.776v2.247c0,1.88-0.117,3.323-0.354,4.332c-0.238,1.009-0.792,2.087-1.663,3.232
		s-1.976,2.005-3.312,2.577c-1.338,0.574-3.015,0.861-5.031,0.861c-1.955,0-3.684-0.283-5.182-0.849
		c-1.497-0.565-2.663-1.341-3.495-2.327c-0.833-0.984-1.409-2.07-1.729-3.255c-0.321-1.185-0.481-2.907-0.481-5.169v-8.871
		c0-2.659,0.359-4.756,1.077-6.292c0.719-1.536,1.896-2.712,3.53-3.53c1.635-0.816,3.515-1.226,5.639-1.226
		c2.599,0,4.741,0.493,6.432,1.478c1.688,0.986,2.872,2.293,3.552,3.92c0.681,1.627,1.02,3.918,1.02,6.865L673.6,127.126
		L673.6,127.126z M664.317,122.175v-2.224c0-1.573-0.084-2.59-0.253-3.049c-0.167-0.459-0.514-0.688-1.03-0.688
		c-0.644,0-1.041,0.194-1.192,0.584c-0.152,0.389-0.229,1.44-0.229,3.151v2.224L664.317,122.175L664.317,122.175z"/>
	
		<path fill="#FFF200" stroke="#000000" stroke-width="5.9528" stroke-linecap="round" stroke-linejoin="round" stroke-miterlimit="10" d="
		M697.717,111.378v23.427c0,3.164-0.073,5.209-0.218,6.133c-0.146,0.924-0.661,1.902-1.548,2.934s-2.12,1.818-3.702,2.361
		c-1.581,0.541-3.571,0.813-5.972,0.813c-2.949,0-5.317-0.501-7.105-1.501c-1.789-1.001-2.713-2.969-2.772-5.902h8.984
		c0,1.346,0.489,2.018,1.468,2.018c0.701,0,1.168-0.207,1.397-0.62c0.229-0.413,0.345-1.276,0.345-2.593v-2.295
		c-0.795,0.721-1.633,1.264-2.511,1.632c-0.879,0.368-1.799,0.552-2.762,0.552c-1.666,0-3.038-0.336-4.115-1.009
		s-1.814-1.556-2.211-2.647c-0.398-1.092-0.597-2.647-0.597-4.664v-11.049c0-2.888,0.519-4.966,1.559-6.234
		c1.039-1.27,2.62-1.902,4.745-1.902c1.162,0,2.22,0.236,3.175,0.712c0.954,0.476,1.807,1.187,2.555,2.136l0.666-2.298h8.619
		V111.378z M688.432,119.447c0-1.391-0.078-2.276-0.238-2.659c-0.161-0.382-0.517-0.573-1.066-0.573
		c-0.535,0-0.913,0.219-1.135,0.653c-0.223,0.435-0.332,1.295-0.332,2.577v10.225c0,1.36,0.084,2.243,0.252,2.646
		c0.168,0.406,0.52,0.607,1.054,0.607c0.612,0,1.009-0.244,1.192-0.732c0.184-0.489,0.273-1.598,0.273-3.324V119.447
		L688.432,119.447z"/>
	
		<path fill="#FFF200" stroke="#000000" stroke-width="5.9528" stroke-linecap="round" stroke-linejoin="round" stroke-miterlimit="10" d="
		M722.038,127.126h-11.989v6.578c0,1.375,0.101,2.262,0.3,2.66c0.196,0.396,0.58,0.596,1.146,0.596c0.702,0,1.172-0.265,1.409-0.791
		c0.236-0.526,0.354-1.547,0.354-3.06v-4.012h8.779v2.247c0,1.88-0.119,3.323-0.355,4.332s-0.79,2.087-1.661,3.232
		c-0.87,1.146-1.976,2.005-3.312,2.577c-1.338,0.574-3.014,0.861-5.031,0.861c-1.958,0-3.684-0.283-5.181-0.849
		c-1.499-0.565-2.663-1.341-3.496-2.327c-0.833-0.984-1.409-2.07-1.73-3.255c-0.32-1.185-0.481-2.907-0.481-5.169v-8.871
		c0-2.659,0.359-4.756,1.079-6.292c0.717-1.536,1.894-2.712,3.53-3.53c1.634-0.816,3.514-1.226,5.639-1.226
		c2.597,0,4.739,0.493,6.429,1.478c1.688,0.986,2.873,2.293,3.553,3.92c0.682,1.627,1.021,3.918,1.021,6.865v4.034H722.038z
		 M712.754,122.175v-2.224c0-1.573-0.083-2.59-0.251-3.049c-0.17-0.459-0.513-0.688-1.032-0.688c-0.643,0-1.039,0.194-1.191,0.584
		c-0.152,0.389-0.229,1.44-0.229,3.151v2.224L712.754,122.175L712.754,122.175z"/>
	
		<path fill="#FFF200" stroke="#000000" stroke-width="5.9528" stroke-linecap="round" stroke-linejoin="round" stroke-miterlimit="10" d="
		M733.708,104.686H749.8v7.426h-6.44v7.037h6.027v7.061h-6.027v8.161h7.083v7.427h-16.733L733.708,104.686L733.708,104.686z"/>
	
		<path fill="#FFF200" stroke="#000000" stroke-width="5.9528" stroke-linecap="round" stroke-linejoin="round" stroke-miterlimit="10" d="
		M771.677,111.378l-3.69,14.533l4.471,15.885h-9.003c-0.894-4.012-1.573-7.466-2.035-10.36c-0.616,3.614-1.286,7.067-2.012,10.36
		h-7.741l3.987-15.885l-3.987-14.533h7.741c1.25,6.218,1.919,9.748,2.012,10.59c0.896-5.19,1.572-8.722,2.035-10.59H771.677z"/>
	
		<path fill="#FFF200" stroke="#000000" stroke-width="5.9528" stroke-linecap="round" stroke-linejoin="round" stroke-miterlimit="10" d="
		M782.321,123.161h-8.688v-2.041c0-2.353,0.271-4.167,0.812-5.444c0.543-1.275,1.632-2.402,3.268-3.381
		c1.635-0.979,3.759-1.467,6.372-1.467c3.132,0,5.493,0.554,7.083,1.662c1.589,1.107,2.545,2.468,2.865,4.08
		c0.32,1.613,0.48,4.932,0.48,9.959v15.267h-9.009v-2.711c-0.563,1.087-1.295,1.903-2.188,2.446
		c-0.896,0.543-1.96,0.814-3.198,0.814c-1.62,0-3.106-0.455-4.458-1.363c-1.354-0.909-2.028-2.9-2.028-5.973v-2.498
		c0-2.277,0.357-3.828,1.076-4.652c0.719-0.825,2.499-1.789,5.342-2.889c3.041-1.191,4.668-1.994,4.882-2.408
		c0.216-0.412,0.321-1.252,0.321-2.521c0-1.589-0.118-2.625-0.355-3.106c-0.235-0.48-0.63-0.722-1.181-0.722
		c-0.626,0-1.017,0.203-1.169,0.606c-0.151,0.406-0.229,1.457-0.229,3.152L782.321,123.161L782.321,123.161z M785.255,127.333
		c-1.481,1.085-2.342,1.994-2.578,2.728s-0.354,1.789-0.354,3.164c0,1.574,0.102,2.59,0.31,3.049
		c0.205,0.459,0.615,0.688,1.227,0.688c0.581,0,0.959-0.179,1.135-0.539c0.176-0.359,0.264-1.303,0.264-2.831v-6.258H785.255z"/>
	
		<path fill="#FFF200" stroke="#000000" stroke-width="5.9528" stroke-linecap="round" stroke-linejoin="round" stroke-miterlimit="10" d="
		M807.224,111.378l-0.159,2.894c0.719-1.147,1.572-2.008,2.565-2.582c0.994-0.574,2.125-0.861,3.395-0.861
		c2.476,0,4.424,1.148,5.845,3.443c0.779-1.147,1.658-2.008,2.637-2.582s2.062-0.861,3.254-0.861c1.574,0,2.877,0.382,3.909,1.146
		c1.03,0.765,1.692,1.7,1.982,2.808c0.29,1.108,0.436,2.907,0.436,5.397v21.616h-8.985v-19.828c0-2.598-0.088-4.207-0.264-4.825
		c-0.176-0.619-0.585-0.928-1.227-0.928c-0.657,0-1.082,0.307-1.272,0.917c-0.189,0.612-0.286,2.224-0.286,4.837v19.828h-8.985
		v-19.322c0-2.98-0.072-4.769-0.219-5.365c-0.145-0.596-0.546-0.894-1.202-0.894c-0.412,0-0.766,0.157-1.056,0.47
		c-0.29,0.313-0.45,0.696-0.479,1.146c-0.031,0.451-0.046,1.41-0.046,2.877v21.088h-8.985v-30.418L807.224,111.378L807.224,111.378z
		"/>
	
		<path fill="#FFF200" stroke="#000000" stroke-width="5.9528" stroke-linecap="round" stroke-linejoin="round" stroke-miterlimit="10" d="
		M853.559,121.098h-8.205v-1.65c0-1.405-0.081-2.295-0.24-2.67c-0.161-0.375-0.562-0.562-1.203-0.562
		c-0.521,0-0.909,0.171-1.17,0.516c-0.26,0.345-0.391,0.859-0.391,1.547c0,0.934,0.065,1.617,0.195,2.053s0.521,0.914,1.168,1.434
		c0.65,0.52,1.983,1.275,4.001,2.269c2.689,1.315,4.455,2.553,5.295,3.714c0.84,1.162,1.261,2.85,1.261,5.066
		c0,2.476-0.319,4.344-0.963,5.604c-0.642,1.261-1.715,2.23-3.222,2.911c-1.504,0.68-3.319,1.021-5.442,1.021
		c-2.354,0-4.366-0.367-6.039-1.101c-1.675-0.733-2.823-1.728-3.45-2.979c-0.627-1.254-0.94-3.148-0.94-5.686v-1.467h8.207v1.925
		c0,1.636,0.102,2.696,0.311,3.187c0.204,0.489,0.614,0.733,1.226,0.733c0.657,0,1.116-0.164,1.376-0.493
		c0.26-0.328,0.389-1.02,0.389-2.074c0-1.451-0.168-2.36-0.503-2.728c-0.353-0.367-2.146-1.452-5.388-3.255
		c-2.72-1.528-4.378-2.915-4.975-4.16c-0.597-1.246-0.895-2.725-0.895-4.436c0-2.431,0.321-4.222,0.963-5.375
		c0.643-1.153,1.73-2.043,3.269-2.67c1.533-0.627,3.318-0.939,5.352-0.939c2.017,0,3.732,0.256,5.146,0.768s2.498,1.188,3.256,2.028
		c0.755,0.841,1.214,1.62,1.375,2.338c0.159,0.718,0.239,1.843,0.239,3.37L853.559,121.098L853.559,121.098z"/>
</g>
<g>
	<path fill="#FFF200" d="M438.976,104.686l-4.91,37.11h-14.659l-5.576-37.11h10.177c1.184,10.223,2.027,18.871,2.533,25.947
		c0.499-7.15,1.028-13.501,1.588-19.047l0.67-6.9H438.976z"/>
	<path fill="#FFF200" d="M449.911,104.686v4.836h-9.536v-4.836H449.911z M449.911,111.378v30.418h-9.536v-30.418H449.911z"/>
	<path fill="#FFF200" d="M473.75,122.861h-8.733v-3.506c0-1.224-0.1-2.051-0.298-2.487c-0.199-0.437-0.564-0.653-1.1-0.653
		c-0.536,0-0.896,0.191-1.077,0.573c-0.185,0.382-0.275,1.237-0.275,2.567v14.349c0,1.085,0.139,1.899,0.413,2.442
		c0.273,0.541,0.68,0.812,1.215,0.812c0.625,0,1.05-0.283,1.271-0.848c0.221-0.565,0.332-1.635,0.332-3.209v-3.623h8.252
		c-0.016,2.431-0.104,4.253-0.263,5.468c-0.162,1.215-0.675,2.46-1.538,3.735c-0.862,1.276-1.989,2.24-3.38,2.889
		c-1.393,0.648-3.109,0.975-5.156,0.975c-2.613,0-4.686-0.447-6.213-1.342c-1.528-0.895-2.608-2.146-3.243-3.759
		s-0.951-3.899-0.951-6.865v-8.642c0-2.584,0.26-4.531,0.779-5.846c0.519-1.313,1.627-2.486,3.324-3.519
		c1.696-1.032,3.759-1.547,6.188-1.547c2.413,0,4.477,0.512,6.188,1.536c1.711,1.023,2.851,2.314,3.416,3.873
		C473.467,117.797,473.75,120.005,473.75,122.861z"/>
	<path fill="#FFF200" d="M486.312,107.32v4.791h2.497v4.814h-2.497v16.275c0,2.002,0.104,3.117,0.31,3.347
		c0.207,0.229,1.065,0.345,2.58,0.345v4.904h-3.738c-2.108,0-3.613-0.088-4.515-0.263c-0.902-0.177-1.696-0.581-2.385-1.216
		c-0.688-0.633-1.115-1.359-1.282-2.178c-0.17-0.816-0.254-2.738-0.254-5.765v-15.45h-1.993v-4.814h1.993v-4.791H486.312
		L486.312,107.32z"/>
	<path fill="#FFF200" d="M511.849,122.061v7.449c0,2.735-0.137,4.741-0.411,6.018c-0.275,1.275-0.863,2.468-1.765,3.576
		c-0.903,1.107-2.061,1.926-3.474,2.453c-1.414,0.526-3.036,0.791-4.871,0.791c-2.049,0-3.783-0.227-5.204-0.677
		s-2.525-1.131-3.312-2.04c-0.787-0.908-1.349-2.009-1.686-3.301c-0.336-1.291-0.504-3.229-0.504-5.811v-7.793
		c0-2.828,0.306-5.035,0.917-6.625s1.712-2.865,3.301-3.828c1.59-0.963,3.621-1.444,6.097-1.444c2.08,0,3.863,0.31,5.354,0.928
		c1.49,0.619,2.64,1.425,3.449,2.419c0.811,0.993,1.363,2.018,1.662,3.071C511.7,118.301,511.849,119.906,511.849,122.061z
		 M502.589,119.768c0-1.559-0.085-2.541-0.252-2.945c-0.169-0.404-0.528-0.607-1.078-0.607s-0.917,0.203-1.101,0.607
		s-0.275,1.387-0.275,2.945v13.73c0,1.438,0.093,2.373,0.275,2.809c0.184,0.436,0.543,0.652,1.079,0.652
		c0.55,0,0.913-0.199,1.088-0.596c0.175-0.397,0.264-1.254,0.264-2.568V119.768z"/>
	<path fill="#FFF200" d="M524.205,111.378l-0.366,4c1.345-2.864,3.293-4.381,5.846-4.55v10.705c-1.695,0-2.94,0.229-3.736,0.688
		c-0.794,0.459-1.283,1.098-1.467,1.914c-0.185,0.818-0.275,2.702-0.275,5.65v12.011h-9.261v-30.418H524.205z"/>
	<path fill="#FFF200" d="M541.329,104.686v4.836h-9.535v-4.836H541.329z M541.329,111.378v30.418h-9.535v-30.418H541.329z"/>
	<path fill="#FFF200" d="M552.976,123.161h-8.688v-2.041c0-2.353,0.271-4.167,0.813-5.444c0.543-1.275,1.632-2.402,3.267-3.381
		c1.636-0.979,3.76-1.467,6.373-1.467c3.134,0,5.493,0.554,7.084,1.662c1.589,1.107,2.543,2.468,2.864,4.08
		c0.32,1.613,0.481,4.932,0.481,9.959v15.267h-9.01v-2.711c-0.565,1.087-1.295,1.903-2.188,2.446s-1.959,0.814-3.196,0.814
		c-1.62,0-3.106-0.455-4.459-1.363c-1.354-0.909-2.029-2.9-2.029-5.973v-2.498c0-2.277,0.359-3.828,1.079-4.652
		c0.718-0.825,2.497-1.789,5.34-2.889c3.041-1.191,4.668-1.994,4.883-2.408c0.214-0.412,0.321-1.252,0.321-2.521
		c0-1.589-0.12-2.625-0.355-3.106c-0.237-0.48-0.631-0.722-1.182-0.722c-0.626,0-1.016,0.203-1.168,0.606
		c-0.153,0.406-0.229,1.457-0.229,3.152L552.976,123.161L552.976,123.161z M555.91,127.333c-1.483,1.085-2.343,1.994-2.579,2.728
		c-0.237,0.733-0.355,1.789-0.355,3.164c0,1.574,0.104,2.59,0.311,3.049s0.615,0.688,1.226,0.688c0.581,0,0.959-0.179,1.137-0.539
		c0.175-0.359,0.264-1.303,0.264-2.831v-6.258H555.91z"/>
	<path fill="#FFF200" d="M599.533,120.846h-9.649v-6.451c0-1.875-0.104-3.045-0.31-3.511c-0.207-0.465-0.662-0.698-1.364-0.698
		c-0.794,0-1.299,0.283-1.513,0.849c-0.215,0.565-0.321,1.788-0.321,3.667v17.238c0,1.803,0.106,2.979,0.321,3.529
		c0.214,0.551,0.693,0.825,1.443,0.825c0.719,0,1.188-0.276,1.409-0.828c0.222-0.551,0.333-1.846,0.333-3.883v-4.665h9.649v1.446
		c0,3.841-0.271,6.565-0.813,8.172s-1.742,3.015-3.598,4.224c-1.858,1.209-4.146,1.813-6.866,1.813
		c-2.828,0-5.158-0.513-6.991-1.536c-1.834-1.023-3.049-2.441-3.645-4.252c-0.598-1.811-0.896-4.535-0.896-8.172V117.77
		c0-2.674,0.092-4.679,0.275-6.017c0.184-1.337,0.729-2.625,1.639-3.862c0.91-1.236,2.17-2.211,3.783-2.923
		c1.611-0.71,3.464-1.065,5.558-1.065c2.844,0,5.188,0.55,7.037,1.648c1.851,1.1,3.063,2.469,3.646,4.109
		c0.582,1.64,0.871,4.193,0.871,7.656L599.533,120.846L599.533,120.846z"/>
	<path fill="#FFF200" d="M623.718,122.061v7.449c0,2.735-0.138,4.741-0.412,6.018c-0.274,1.275-0.863,2.468-1.766,3.576
		c-0.902,1.107-2.06,1.926-3.472,2.453c-1.414,0.526-3.038,0.791-4.872,0.791c-2.048,0-3.782-0.227-5.203-0.677
		s-2.525-1.131-3.312-2.04c-0.788-0.908-1.351-2.009-1.686-3.301c-0.336-1.291-0.505-3.229-0.505-5.811v-7.793
		c0-2.828,0.307-5.035,0.918-6.625c0.609-1.59,1.711-2.865,3.3-3.828c1.59-0.963,3.622-1.444,6.098-1.444
		c2.078,0,3.862,0.31,5.354,0.928c1.489,0.619,2.64,1.425,3.45,2.419c0.81,0.993,1.362,2.018,1.661,3.071
		S623.718,119.906,623.718,122.061z M614.457,119.768c0-1.559-0.085-2.541-0.252-2.945c-0.168-0.404-0.527-0.607-1.077-0.607
		s-0.917,0.203-1.101,0.607c-0.185,0.404-0.275,1.387-0.275,2.945v13.73c0,1.438,0.092,2.373,0.275,2.809
		c0.183,0.435,0.542,0.652,1.076,0.652c0.551,0,0.913-0.199,1.09-0.596c0.175-0.397,0.264-1.254,0.264-2.568V119.768
		L614.457,119.768z"/>
	<path fill="#FFF200" d="M636.349,104.686v37.11h-9.534v-37.11H636.349z"/>
	<path fill="#FFF200" d="M649.256,104.686v37.11h-9.536v-37.11H649.256z"/>
	<path fill="#FFF200" d="M673.6,127.126h-11.985v6.578c0,1.375,0.099,2.262,0.297,2.66c0.198,0.396,0.581,0.596,1.146,0.596
		c0.704,0,1.174-0.265,1.41-0.791s0.356-1.547,0.356-3.06v-4.012h8.776v2.247c0,1.88-0.117,3.323-0.354,4.332
		c-0.238,1.009-0.792,2.087-1.663,3.232s-1.976,2.005-3.312,2.577c-1.338,0.574-3.015,0.861-5.031,0.861
		c-1.955,0-3.684-0.283-5.182-0.849c-1.497-0.565-2.663-1.341-3.495-2.327c-0.833-0.984-1.409-2.07-1.729-3.255
		c-0.321-1.185-0.481-2.907-0.481-5.169v-8.871c0-2.659,0.359-4.756,1.077-6.292c0.719-1.536,1.896-2.712,3.53-3.53
		c1.635-0.816,3.515-1.226,5.639-1.226c2.599,0,4.741,0.493,6.432,1.478c1.688,0.986,2.872,2.293,3.552,3.92
		c0.681,1.627,1.02,3.918,1.02,6.865L673.6,127.126L673.6,127.126z M664.317,122.175v-2.224c0-1.573-0.084-2.59-0.253-3.049
		c-0.167-0.459-0.514-0.688-1.03-0.688c-0.644,0-1.041,0.194-1.192,0.584c-0.152,0.389-0.229,1.44-0.229,3.151v2.224
		L664.317,122.175L664.317,122.175z"/>
	<path fill="#FFF200" d="M697.717,111.378v23.427c0,3.164-0.073,5.209-0.218,6.133c-0.146,0.924-0.661,1.902-1.548,2.934
		s-2.12,1.818-3.702,2.361c-1.581,0.541-3.571,0.813-5.972,0.813c-2.949,0-5.317-0.501-7.105-1.501
		c-1.789-1.001-2.713-2.969-2.772-5.902h8.984c0,1.346,0.489,2.018,1.468,2.018c0.701,0,1.168-0.207,1.397-0.62
		c0.229-0.413,0.345-1.276,0.345-2.593v-2.295c-0.795,0.721-1.633,1.264-2.511,1.632c-0.879,0.368-1.799,0.552-2.762,0.552
		c-1.666,0-3.038-0.336-4.115-1.009s-1.814-1.556-2.211-2.647c-0.398-1.092-0.597-2.647-0.597-4.664v-11.049
		c0-2.888,0.519-4.966,1.559-6.234c1.039-1.27,2.62-1.902,4.745-1.902c1.162,0,2.22,0.236,3.175,0.712
		c0.954,0.476,1.807,1.187,2.555,2.136l0.666-2.298h8.619V111.378z M688.432,119.447c0-1.391-0.078-2.276-0.238-2.659
		c-0.161-0.382-0.517-0.573-1.066-0.573c-0.535,0-0.913,0.219-1.135,0.653c-0.223,0.435-0.332,1.295-0.332,2.577v10.225
		c0,1.36,0.084,2.243,0.252,2.646c0.168,0.406,0.52,0.607,1.054,0.607c0.612,0,1.009-0.244,1.192-0.732
		c0.184-0.489,0.273-1.598,0.273-3.324V119.447L688.432,119.447z"/>
	<path fill="#FFF200" d="M722.038,127.126h-11.989v6.578c0,1.375,0.101,2.262,0.3,2.66c0.196,0.396,0.58,0.596,1.146,0.596
		c0.702,0,1.172-0.265,1.409-0.791c0.236-0.526,0.354-1.547,0.354-3.06v-4.012h8.779v2.247c0,1.88-0.119,3.323-0.355,4.332
		s-0.79,2.087-1.661,3.232c-0.87,1.146-1.976,2.005-3.312,2.577c-1.338,0.574-3.014,0.861-5.031,0.861
		c-1.958,0-3.684-0.283-5.181-0.849c-1.499-0.565-2.663-1.341-3.496-2.327c-0.833-0.984-1.409-2.07-1.73-3.255
		c-0.32-1.185-0.481-2.907-0.481-5.169v-8.871c0-2.659,0.359-4.756,1.079-6.292c0.717-1.536,1.894-2.712,3.53-3.53
		c1.634-0.816,3.514-1.226,5.639-1.226c2.597,0,4.739,0.493,6.429,1.478c1.688,0.986,2.873,2.293,3.553,3.92
		c0.682,1.627,1.021,3.918,1.021,6.865v4.034H722.038z M712.754,122.175v-2.224c0-1.573-0.083-2.59-0.251-3.049
		c-0.17-0.459-0.513-0.688-1.032-0.688c-0.643,0-1.039,0.194-1.191,0.584c-0.152,0.389-0.229,1.44-0.229,3.151v2.224
		L712.754,122.175L712.754,122.175z"/>
	<path fill="#FFF200" d="M733.708,104.686H749.8v7.426h-6.44v7.037h6.027v7.061h-6.027v8.161h7.083v7.427h-16.733L733.708,104.686
		L733.708,104.686z"/>
	<path fill="#FFF200" d="M771.677,111.378l-3.69,14.533l4.471,15.885h-9.003c-0.894-4.012-1.573-7.466-2.035-10.36
		c-0.616,3.614-1.286,7.067-2.012,10.36h-7.741l3.987-15.885l-3.987-14.533h7.741c1.25,6.218,1.919,9.748,2.012,10.59
		c0.896-5.19,1.572-8.722,2.035-10.59H771.677z"/>
	<path fill="#FFF200" d="M782.321,123.161h-8.688v-2.041c0-2.353,0.271-4.167,0.812-5.444c0.543-1.275,1.632-2.402,3.268-3.381
		c1.635-0.979,3.759-1.467,6.372-1.467c3.132,0,5.493,0.554,7.083,1.662c1.589,1.107,2.545,2.468,2.865,4.08
		c0.32,1.613,0.48,4.932,0.48,9.959v15.267h-9.009v-2.711c-0.563,1.087-1.295,1.903-2.188,2.446
		c-0.896,0.543-1.96,0.814-3.198,0.814c-1.62,0-3.106-0.455-4.458-1.363c-1.354-0.909-2.028-2.9-2.028-5.973v-2.498
		c0-2.277,0.357-3.828,1.076-4.652c0.719-0.825,2.499-1.789,5.342-2.889c3.041-1.191,4.668-1.994,4.882-2.408
		c0.216-0.412,0.321-1.252,0.321-2.521c0-1.589-0.118-2.625-0.355-3.106c-0.235-0.48-0.63-0.722-1.181-0.722
		c-0.626,0-1.017,0.203-1.169,0.606c-0.151,0.406-0.229,1.457-0.229,3.152L782.321,123.161L782.321,123.161z M785.255,127.333
		c-1.481,1.085-2.342,1.994-2.578,2.728s-0.354,1.789-0.354,3.164c0,1.574,0.102,2.59,0.31,3.049
		c0.205,0.459,0.615,0.688,1.227,0.688c0.581,0,0.959-0.179,1.135-0.539c0.176-0.359,0.264-1.303,0.264-2.831v-6.258H785.255z"/>
	<path fill="#FFF200" d="M807.224,111.378l-0.159,2.894c0.719-1.147,1.572-2.008,2.565-2.582c0.994-0.574,2.125-0.861,3.395-0.861
		c2.476,0,4.424,1.148,5.845,3.443c0.779-1.147,1.658-2.008,2.637-2.582s2.062-0.861,3.254-0.861c1.574,0,2.877,0.382,3.909,1.146
		c1.03,0.765,1.692,1.7,1.982,2.808c0.29,1.108,0.436,2.907,0.436,5.397v21.616h-8.985v-19.828c0-2.598-0.088-4.207-0.264-4.825
		c-0.176-0.619-0.585-0.928-1.227-0.928c-0.657,0-1.082,0.307-1.272,0.917c-0.189,0.612-0.286,2.224-0.286,4.837v19.828h-8.985
		v-19.322c0-2.98-0.072-4.769-0.219-5.365c-0.145-0.596-0.546-0.894-1.202-0.894c-0.412,0-0.766,0.157-1.056,0.47
		c-0.29,0.313-0.45,0.696-0.479,1.146c-0.031,0.451-0.046,1.41-0.046,2.877v21.088h-8.985v-30.418L807.224,111.378L807.224,111.378z
		"/>
	<path fill="#FFF200" d="M853.559,121.098h-8.205v-1.65c0-1.405-0.081-2.295-0.24-2.67c-0.161-0.375-0.562-0.562-1.203-0.562
		c-0.521,0-0.909,0.171-1.17,0.516c-0.26,0.345-0.391,0.859-0.391,1.547c0,0.934,0.065,1.617,0.195,2.053s0.521,0.914,1.168,1.434
		c0.65,0.52,1.983,1.275,4.001,2.269c2.689,1.315,4.455,2.553,5.295,3.714c0.84,1.162,1.261,2.85,1.261,5.066
		c0,2.476-0.319,4.344-0.963,5.604c-0.642,1.261-1.715,2.23-3.222,2.911c-1.504,0.68-3.319,1.021-5.442,1.021
		c-2.354,0-4.366-0.367-6.039-1.101c-1.675-0.733-2.823-1.728-3.45-2.979c-0.627-1.254-0.94-3.148-0.94-5.686v-1.467h8.207v1.925
		c0,1.636,0.102,2.696,0.311,3.187c0.204,0.489,0.614,0.733,1.226,0.733c0.657,0,1.116-0.164,1.376-0.493
		c0.26-0.328,0.389-1.02,0.389-2.074c0-1.451-0.168-2.36-0.503-2.728c-0.353-0.367-2.146-1.452-5.388-3.255
		c-2.72-1.528-4.378-2.915-4.975-4.16c-0.597-1.246-0.895-2.725-0.895-4.436c0-2.431,0.321-4.222,0.963-5.375
		c0.643-1.153,1.73-2.043,3.269-2.67c1.533-0.627,3.318-0.939,5.352-0.939c2.017,0,3.732,0.256,5.146,0.768s2.498,1.188,3.256,2.028
		c0.755,0.841,1.214,1.62,1.375,2.338c0.159,0.718,0.239,1.843,0.239,3.37L853.559,121.098L853.559,121.098z"/>
</g>
<g>
	
		<path fill="#367ED4" stroke="#000000" stroke-width="4.5354" stroke-linecap="round" stroke-linejoin="round" stroke-miterlimit="10" d="
		M85.048,10.238h-19c-2.75,0-3.875,2.255-3.875,2.255L47.108,44.582L32.043,12.493c0,0-1.125-2.255-3.875-2.255h-19
		c0,0-5.625-0.12-2.5,4.63l31.625,63.625c0,0,1.375,2.188,2.188,2.188c0.654,0,4.744,0,6.317,0c0.382,0,0.62,0,0.62,0
		c1.574,0,5.664,0,6.317,0c0.812,0,2.188-2.188,2.188-2.188l31.625-63.625C90.673,10.118,85.048,10.238,85.048,10.238z"/>
	
		<path fill="#367ED4" stroke="#000000" stroke-width="4.5354" stroke-linecap="round" stroke-linejoin="round" stroke-miterlimit="10" d="
		M162.937,61.743c0,0,0.477-5.375-5.648-3s-26.75,9.5-38.125-0.5c-5.875-5.375-5.75-13.25-5.75-13.25s-1.25-13.625,11.375-17.625
		s27.875,2,29.75,2.875s5.875,3.125,5.875-2.75s-0.625-10.25-0.625-10.25s1-3.875-4.625-5.125s-32.708-7.555-51.25,3.625
		c-17,10.25-14.75,30-14.75,30s-2.25,19.625,18.25,30s47.277,3.125,51.527,1.25s4.023-3,4.023-5.25S162.937,61.743,162.937,61.743z"
		/>
	
		<path fill="#367ED4" stroke="#000000" stroke-width="4.5354" stroke-linecap="round" stroke-linejoin="round" stroke-miterlimit="10" d="
		M269.199,11.243c0,0-14.75,0-18.875,0s-5.25,2.75-5.25,2.75l-22.337,35.065L200.4,13.993c0,0-1.125-2.75-5.25-2.75
		s-18.875,0-18.875,0s-3-0.125-3,3v61.75c0,0,0,4.25,3.625,4.25s16.5,0,16.5,0s3.75,0.375,3.75-4.375s0-31.851,0-31.851
		l18.25,32.601c0,0,1.5,3.625,4,3.625c2.108,0,3.052,0,3.299,0c0.046,0,0.076,0,0.076,0c0.247,0,1.19,0,3.299,0
		c2.5,0,4-3.625,4-3.625l18.25-32.601c0,0,0,27.101,0,31.851s3.75,4.375,3.75,4.375s12.875,0,16.5,0s3.625-4.25,3.625-4.25v-61.75
		C272.199,11.118,269.199,11.243,269.199,11.243z"/>
	<g>
		
			<path fill="#367ED4" stroke="#000000" stroke-width="4.5354" stroke-linecap="round" stroke-linejoin="round" stroke-miterlimit="10" d="
			M368.443,22.258c-3.243-5.801-10.185-10.97-23.136-10.97h-34.083c0,0-3-0.378-3,2.622v62.333c0,0-0.5,3.75,3.167,3.75
			s17.401,0,17.401,0s3.397,0.646,3.397-3.22c0-3.864,0-20.726,0-20.726h14.368c0,0,24.667,0.696,24.667-22.054
			C371.226,33.993,371.544,27.804,368.443,22.258z M339.31,39.982h-7.25V27.326l0.083-0.833h8.25c0,0,6.833,0.333,6.833,6.833
			S339.31,39.982,339.31,39.982z"/>
	</g>
	
		<path fill="#367ED4" stroke="#000000" stroke-width="4.5354" stroke-linecap="round" stroke-linejoin="round" stroke-miterlimit="10" d="
		M397.471,28.243h-16.174c0,0-2.632-0.25-2.632,2.312c0,2.812,0,36.75,0,36.75s0.875,14.062,17.562,14
		c10.938,0.25,15.3-4.88,15.3-4.88s1.075-1.683,2.575,0.38l1.375,1.75c0,0,0.82,1.625,3.48,1.625c1.625,0,10.77,0,10.77,0
		s2.729,0.188,2.729-2.219V30.338c0,0,0.217-2.193-2.194-2.193c-2.41,0-16.261,0-16.261,0s-2.587-0.402-2.587,2.396
		c0,3.688,0,29.39,0,29.39s0.125,2.312-2.625,3.375s-8.625,2.812-8.688-3.688c0-7.312,0-29.015,0-29.015
		S400.298,28.243,397.471,28.243z"/>
	<g>
		
			<path fill="#367ED4" stroke="#000000" stroke-width="4.5354" stroke-linecap="round" stroke-linejoin="round" stroke-miterlimit="10" d="
			M472.647,26.77c0,0-4.974-0.715-10.16,2.41c0,0-1.75,1.062-1.75-1V12.118c0,0,0.438-2.688-2.688-2.688s-15.315,0-15.315,0
			s-3.063-0.5-3.063,3.062s0,64.812,0,64.812s-0.312,2.875,2.125,2.875c2.438,0,8.628,0,8.628,0s1.063,0,2.251-1.75
			c1.188-1.75,1.813-4.25,1.813-4.25s0.562-1.312,2.125,0.375c1.562,1.687,3.625,6.44,16.438,6.44c0,0,23.383-0.778,23.383-25.499
			v-4.942C496.433,50.555,496.62,26.77,472.647,26.77z M469.05,65.903c-2.014,0.083-3.125-0.16-5.938-1.848
			c-2.813-1.688-2.375-3.5-2.375-3.5V46.368c0.125-4.188,3.625-4.875,6.375-4.875s9.5,1.312,9.5,12.5S471.425,65.805,469.05,65.903z
			"/>
	</g>
	
		<path fill="#367ED4" stroke="#000000" stroke-width="4.5354" stroke-linecap="round" stroke-linejoin="round" stroke-miterlimit="10" d="
		M522.107,77.834c0,1.564-1.016,2.325-2.58,2.325h-13.709c-1.565,0-2.58-0.761-2.58-2.325V13.58c0-1.565,1.015-2.503,2.58-2.503
		h13.709c1.564,0,2.58,0.938,2.58,2.503V77.834z"/>
	<g>
		
			<path fill="#367ED4" stroke="#000000" stroke-width="4.5354" stroke-linecap="round" stroke-linejoin="round" stroke-miterlimit="10" d="
			M548.857,77.834c0,1.564-1.016,2.325-2.58,2.325h-13.709c-1.565,0-2.58-0.761-2.58-2.325V29.382c0-1.565,1.015-2.503,2.58-2.503
			h13.709c1.564,0,2.58,0.938,2.58,2.503V77.834z"/>
		
			<circle fill="#367ED4" stroke="#000000" stroke-width="4.5354" stroke-linecap="round" stroke-linejoin="round" stroke-miterlimit="10" cx="539.204" cy="13.574" r="8.833"/>
	</g>
	
		<path fill="#367ED4" stroke="#000000" stroke-width="4.5354" stroke-linecap="round" stroke-linejoin="round" stroke-miterlimit="10" d="
		M736.528,77.834c0,1.564-1.016,2.325-2.58,2.325h-13.709c-1.565,0-2.58-0.761-2.58-2.325V29.382c0-1.565,1.015-2.503,2.58-2.503
		h13.709c1.564,0,2.58,0.938,2.58,2.503V77.834z"/>
	
		<circle fill="#367ED4" stroke="#000000" stroke-width="4.5354" stroke-linecap="round" stroke-linejoin="round" stroke-miterlimit="10" cx="726.875" cy="13.574" r="8.833"/>
	<g>
		
			<path fill="#367ED4" stroke="#000000" stroke-width="4.5354" stroke-linecap="round" stroke-linejoin="round" stroke-miterlimit="10" d="
			M664.99,70.076c-1.334-1.167-3-2.25-3-2.25s-0.333-0.417-0.75-1V44.938c0,0-0.251-7.862-5.334-11.696s-10.417-6.417-20-5.917
			s-15.083,1.333-22.333,6.167l-1.417,1.167c0,0-2.5,0.5-0.25,3.917s4.051,6.226,4.051,6.226s0.75,1.916,3.25,0.333
			s7.95-4.226,15.533-3.726c0,0,3.582-0.083,6.166,3c0,0,1.333,2.833-0.75,2.833s-11.583,0-11.583,0s-8.999-0.75-16.333,7
			c-5.834,5.083-4.417,11.583-4.417,11.583s0.667,15.333,18.25,15.417c0,0,9.334,0.582,14.667-3.667l2.583-1.583
			c0,0,1.083-0.833,2.5,0.75s4.917,3.583,4.917,3.583s2.084,1.75,5.25-1.083s8.583-6.75,8.583-6.75S666.324,71.243,664.99,70.076z
			 M641.906,64.493c0,0-3.417,3.417-9,3.417s-5.666-2.496-5.666-3.25c0-1.667,0.685-3.422,3.755-4.343
			c3.333-1,6.994-1.407,10.911-0.24V64.493z"/>
	</g>
	
		<path fill="#367ED4" stroke="#000000" stroke-width="4.5354" stroke-linecap="round" stroke-linejoin="round" stroke-miterlimit="10" d="
		M697.597,43.291v19.452c0,0-0.229,3.75,2.896,3.25c3.584-0.417,5.42-1.75,5.42-1.75s3.664-1.833,3.664,1.25V76.41
		c0,0-0.418,2.917-3.334,3.75s-6.499,2.249-11.166,2.166s-12.974-0.666-16.224-7.75c-1.567-3-1.443-9.25-1.443-9.25V43.332h-7.582
		c0,0-2.417,0.279-2.417-2.221s0-10.41,0-10.41s-0.563-2.5,3.208-2.5c3.771,0,6.792,0,6.792,0V17.493c0,0-0.418-2.542,2.291-3.167
		s12.584-2.25,12.584-2.25s5.125-1.292,5.125,2.25s0,13.833,0,13.833h9.958c0,0,3.042-0.292,3.042,2.125s0,10.442,0,10.442
		s0.418,2.583-2.583,2.583S697.597,43.291,697.597,43.291z"/>
	
		<path fill="#367ED4" stroke="#000000" stroke-width="4.5354" stroke-linecap="round" stroke-linejoin="round" stroke-miterlimit="10" d="
		M793.493,35.576c-8.724-8.878-20.301-8.459-21.958-8.349c-1.658-0.11-13.236-0.529-21.959,8.349c0,0-6.75,5.583-6.75,18.5v2.5
		c0,0,0.097,11.669,8.667,17.919c0,0,6.997,6.651,19.916,6.739v0.008c0.043,0,0.083-0.004,0.126-0.004s0.082,0.004,0.125,0.004
		v-0.008c12.919-0.088,19.916-6.739,19.916-6.739c8.57-6.25,8.667-17.919,8.667-17.919v-2.5
		C800.243,41.16,793.493,35.576,793.493,35.576z M781.326,54.493c0,9.809-8.652,10.164-9.791,10.168
		c-1.141-0.004-9.792-0.359-9.792-10.168v-1.75c0,0,0.62-9.439,9.792-9.495c9.171,0.056,9.791,9.495,9.791,9.495V54.493z"/>
	
		<path fill="#367ED4" stroke="#000000" stroke-width="4.5354" stroke-linecap="round" stroke-linejoin="round" stroke-miterlimit="10" d="
		M807.494,31.493v46.182c0,0-0.264,2.492,2.493,2.492s16.562,0,16.562,0s2.694-0.217,2.694-2.634V48.826c0,0-0.091-2.386,1.083-3.25
		c1.95-1.436,3.667-1.833,3.667-1.833s5.5-1.75,5.5,3s0,30.417,0,30.417s-0.083,3,2.917,3s15.5,0,15.5,0s2.666,0.249,2.666-2.667
		c0-2.917,0-35.833,0-35.833s-0.834-8.333-6.5-11.083s-7.667-3.25-12-3.25s-9,1.333-12.333,3.25s-2.333,1.417-2.333,1.417
		s-1.333,1.333-2.5-0.25s-2-2.083-2-2.083s-1.003-1.527-3.058-1.527h-9.526C810.327,28.132,807.494,27.576,807.494,31.493z"/>
	
		<path fill="#367ED4" stroke="#000000" stroke-width="4.5354" stroke-linecap="round" stroke-linejoin="round" stroke-miterlimit="10" d="
		M906.454,44.326V33.909c0,0,0.078-2.154-3.5-3.75c-3.172-1.415-7.294-3.051-14.518-3c-6.355-0.051-11.493,1-15.146,4.402
		c0,0-5.505,3.931-5.505,12.431c0,0-1.083,8.779,7.25,13.446c0,0,3.917,2.388,10.667,4.554c0,0,6.582,2.083,5.916,3.833
		c0,0,0.667,2.498-6.416,1.081c-2.947-0.589-5.178-1.438-7.132-2.095c-2.331-0.783-4.24-1.825-6.371-3.003
		c0,0-3.164-1.316-3.914,1.684s0.25,10.083,0.25,10.083s-0.001,3.667,3.833,4.917s7.666,3.166,17.25,2.833s14-2.499,17.167-6.25
		c3.167-3.75,4.667-6.583,4.667-9.5s0.667-9.584-7.5-14.167c0,0-9.315-4.343-12.815-5.593s-4.102-1.824-4.019-3.233
		c0.113-1.929,2-2.09,4-1.869c0.342,0.038,5.084,0.695,9.25,3.029l2.831,1.49C902.701,45.233,906.287,48.159,906.454,44.326z"/>
	
		<path fill="#367ED4" stroke="#000000" stroke-width="4.5354" stroke-linecap="round" stroke-linejoin="round" stroke-miterlimit="10" d="
		M583.779,27.34c-5.894,0.096-12.162,1.176-16.609,4.109c-7.38,4.868-11.216,13.686-11.216,22.787
		c0,7.922,2.914,16.074,8.729,20.997c5.093,4.311,12.578,5.908,19.979,5.908h0.083c5.5,0,11.706-2.148,13.706-3.731
		c0,0,0.986-0.526,1.188-2.667c0.302-3.17,1.04-11.701,1.04-11.701s-0.624-4.216-5.04-1.466s-13.002,6.083-18.336-1.583
		c-1.624-2.334-1.909-4.506-1.991-6.422c-0.184-4.376,2.213-7.415,2.907-7.995c1-0.833,6.338-6.25,15.754-0.417l2.5,1.5
		c0,0,3.749,3.167,4.416-1.25l-0.583-10.583c0,0-0.249-2.333-1.583-3.917c0,0-4.523-3.736-14.857-3.569L583.779,27.34L583.779,27.34
		z"/>
</g>
<g>
	<path fill="#367ED4" stroke="#231F20" stroke-width="1.7008" stroke-miterlimit="10" d="M85.048,10.238h-19
		c-2.75,0-3.875,2.255-3.875,2.255L47.108,44.582L32.043,12.493c0,0-1.125-2.255-3.875-2.255h-19c0,0-5.625-0.12-2.5,4.63
		l31.625,63.625c0,0,1.375,2.188,2.188,2.188c0.654,0,4.744,0,6.317,0c0.382,0,0.62,0,0.62,0c1.574,0,5.664,0,6.317,0
		c0.812,0,2.188-2.188,2.188-2.188l31.625-63.625C90.673,10.118,85.048,10.238,85.048,10.238z"/>
	<path fill="#367ED4" stroke="#231F20" stroke-width="1.7008" stroke-miterlimit="10" d="M162.937,61.743c0,0,0.477-5.375-5.648-3
		s-26.75,9.5-38.125-0.5c-5.875-5.375-5.75-13.25-5.75-13.25s-1.25-13.625,11.375-17.625s27.875,2,29.75,2.875
		s5.875,3.125,5.875-2.75s-0.625-10.25-0.625-10.25s1-3.875-4.625-5.125s-32.708-7.555-51.25,3.625c-17,10.25-14.75,30-14.75,30
		s-2.25,19.625,18.25,30s47.277,3.125,51.527,1.25s4.023-3,4.023-5.25S162.937,61.743,162.937,61.743z"/>
	<path fill="#367ED4" stroke="#231F20" stroke-width="1.7008" stroke-miterlimit="10" d="M269.199,11.243c0,0-14.75,0-18.875,0
		s-5.25,2.75-5.25,2.75l-22.337,35.065L200.4,13.993c0,0-1.125-2.75-5.25-2.75s-18.875,0-18.875,0s-3-0.125-3,3v61.75
		c0,0,0,4.25,3.625,4.25s16.5,0,16.5,0s3.75,0.375,3.75-4.375s0-31.851,0-31.851l18.25,32.601c0,0,1.5,3.625,4,3.625
		c2.108,0,3.052,0,3.299,0c0.046,0,0.076,0,0.076,0c0.247,0,1.19,0,3.299,0c2.5,0,4-3.625,4-3.625l18.25-32.601
		c0,0,0,27.101,0,31.851s3.75,4.375,3.75,4.375s12.875,0,16.5,0s3.625-4.25,3.625-4.25v-61.75
		C272.199,11.118,269.199,11.243,269.199,11.243z"/>
	<g>
		<path fill="#367ED4" stroke="#231F20" stroke-width="1.7008" stroke-miterlimit="10" d="M368.443,22.258
			c-3.243-5.801-10.185-10.97-23.136-10.97h-34.083c0,0-3-0.378-3,2.622v62.333c0,0-0.5,3.75,3.167,3.75s17.401,0,17.401,0
			s3.397,0.646,3.397-3.22c0-3.864,0-20.726,0-20.726h14.368c0,0,24.667,0.696,24.667-22.054
			C371.226,33.993,371.544,27.804,368.443,22.258z M339.31,39.982h-7.25V27.326l0.083-0.833h8.25c0,0,6.833,0.333,6.833,6.833
			S339.31,39.982,339.31,39.982z"/>
	</g>
	<path fill="#367ED4" stroke="#231F20" stroke-width="1.7008" stroke-miterlimit="10" d="M397.471,28.243h-16.174
		c0,0-2.632-0.25-2.632,2.312c0,2.812,0,36.75,0,36.75s0.875,14.062,17.562,14c10.938,0.25,15.3-4.88,15.3-4.88
		s1.075-1.683,2.575,0.38l1.375,1.75c0,0,0.82,1.625,3.48,1.625c1.625,0,10.77,0,10.77,0s2.729,0.188,2.729-2.219V30.338
		c0,0,0.217-2.193-2.194-2.193c-2.41,0-16.261,0-16.261,0s-2.587-0.402-2.587,2.396c0,3.688,0,29.39,0,29.39
		s0.125,2.312-2.625,3.375s-8.625,2.812-8.688-3.688c0-7.312,0-29.015,0-29.015S400.298,28.243,397.471,28.243z"/>
	<g>
		<path fill="#367ED4" stroke="#231F20" stroke-width="1.7008" stroke-miterlimit="10" d="M472.647,26.77
			c0,0-4.974-0.715-10.16,2.41c0,0-1.75,1.062-1.75-1V12.118c0,0,0.438-2.688-2.688-2.688s-15.315,0-15.315,0
			s-3.063-0.5-3.063,3.062s0,64.812,0,64.812s-0.312,2.875,2.125,2.875c2.438,0,8.628,0,8.628,0s1.063,0,2.251-1.75
			c1.188-1.75,1.813-4.25,1.813-4.25s0.562-1.312,2.125,0.375c1.562,1.687,3.625,6.44,16.438,6.44c0,0,23.383-0.778,23.383-25.499
			v-4.942C496.433,50.555,496.62,26.77,472.647,26.77z M469.05,65.903c-2.014,0.083-3.125-0.16-5.938-1.848
			c-2.813-1.688-2.375-3.5-2.375-3.5V46.368c0.125-4.188,3.625-4.875,6.375-4.875s9.5,1.312,9.5,12.5S471.425,65.805,469.05,65.903z
			"/>
	</g>
	<path fill="#367ED4" stroke="#231F20" stroke-width="1.7008" stroke-miterlimit="10" d="M522.107,77.834
		c0,1.564-1.016,2.325-2.58,2.325h-13.709c-1.565,0-2.58-0.761-2.58-2.325V13.58c0-1.565,1.015-2.503,2.58-2.503h13.709
		c1.564,0,2.58,0.938,2.58,2.503V77.834z"/>
	<g>
		<path fill="#367ED4" stroke="#231F20" stroke-width="1.7008" stroke-miterlimit="10" d="M548.857,77.834
			c0,1.564-1.016,2.325-2.58,2.325h-13.709c-1.565,0-2.58-0.761-2.58-2.325V29.382c0-1.565,1.015-2.503,2.58-2.503h13.709
			c1.564,0,2.58,0.938,2.58,2.503V77.834z"/>
		<circle fill="#367ED4" stroke="#231F20" stroke-width="1.7008" stroke-miterlimit="10" cx="539.204" cy="13.574" r="8.833"/>
	</g>
	<path fill="#367ED4" stroke="#231F20" stroke-width="1.7008" stroke-miterlimit="10" d="M736.528,77.834
		c0,1.564-1.016,2.325-2.58,2.325h-13.709c-1.565,0-2.58-0.761-2.58-2.325V29.382c0-1.565,1.015-2.503,2.58-2.503h13.709
		c1.564,0,2.58,0.938,2.58,2.503V77.834z"/>
	<circle fill="#367ED4" stroke="#231F20" stroke-width="1.7008" stroke-miterlimit="10" cx="726.875" cy="13.574" r="8.833"/>
	<g>
		<path fill="#367ED4" stroke="#231F20" stroke-width="1.7008" stroke-miterlimit="10" d="M664.99,70.076
			c-1.334-1.167-3-2.25-3-2.25s-0.333-0.417-0.75-1V44.938c0,0-0.251-7.862-5.334-11.696s-10.417-6.417-20-5.917
			s-15.083,1.333-22.333,6.167l-1.417,1.167c0,0-2.5,0.5-0.25,3.917s4.051,6.226,4.051,6.226s0.75,1.916,3.25,0.333
			s7.95-4.226,15.533-3.726c0,0,3.582-0.083,6.166,3c0,0,1.333,2.833-0.75,2.833s-11.583,0-11.583,0s-8.999-0.75-16.333,7
			c-5.834,5.083-4.417,11.583-4.417,11.583s0.667,15.333,18.25,15.417c0,0,9.334,0.582,14.667-3.667l2.583-1.583
			c0,0,1.083-0.833,2.5,0.75s4.917,3.583,4.917,3.583s2.084,1.75,5.25-1.083s8.583-6.75,8.583-6.75S666.324,71.243,664.99,70.076z
			 M641.906,64.493c0,0-3.417,3.417-9,3.417s-5.666-2.496-5.666-3.25c0-1.667,0.685-3.422,3.755-4.343
			c3.333-1,6.994-1.407,10.911-0.24V64.493z"/>
	</g>
	<path fill="#367ED4" stroke="#231F20" stroke-width="1.7008" stroke-miterlimit="10" d="M697.597,43.291v19.452
		c0,0-0.229,3.75,2.896,3.25c3.584-0.417,5.42-1.75,5.42-1.75s3.664-1.833,3.664,1.25V76.41c0,0-0.418,2.917-3.334,3.75
		s-6.499,2.249-11.166,2.166s-12.974-0.666-16.224-7.75c-1.567-3-1.443-9.25-1.443-9.25V43.332h-7.582c0,0-2.417,0.279-2.417-2.221
		s0-10.41,0-10.41s-0.563-2.5,3.208-2.5c3.771,0,6.792,0,6.792,0V17.493c0,0-0.418-2.542,2.291-3.167s12.584-2.25,12.584-2.25
		s5.125-1.292,5.125,2.25s0,13.833,0,13.833h9.958c0,0,3.042-0.292,3.042,2.125s0,10.442,0,10.442s0.418,2.583-2.583,2.583
		S697.597,43.291,697.597,43.291z"/>
	<path fill="#367ED4" stroke="#231F20" stroke-width="1.7008" stroke-miterlimit="10" d="M793.493,35.576
		c-8.724-8.878-20.301-8.459-21.958-8.349c-1.658-0.11-13.236-0.529-21.959,8.349c0,0-6.75,5.583-6.75,18.5v2.5
		c0,0,0.097,11.669,8.667,17.919c0,0,6.997,6.651,19.916,6.739v0.008c0.043,0,0.083-0.004,0.126-0.004s0.082,0.004,0.125,0.004
		v-0.008c12.919-0.088,19.916-6.739,19.916-6.739c8.57-6.25,8.667-17.919,8.667-17.919v-2.5
		C800.243,41.16,793.493,35.576,793.493,35.576z M781.326,54.493c0,9.809-8.652,10.164-9.791,10.168
		c-1.141-0.004-9.792-0.359-9.792-10.168v-1.75c0,0,0.62-9.439,9.792-9.495c9.171,0.056,9.791,9.495,9.791,9.495V54.493z"/>
	<path fill="#367ED4" stroke="#231F20" stroke-width="1.7008" stroke-miterlimit="10" d="M807.494,31.493v46.182
		c0,0-0.264,2.492,2.493,2.492s16.562,0,16.562,0s2.694-0.217,2.694-2.634V48.826c0,0-0.091-2.386,1.083-3.25
		c1.95-1.436,3.667-1.833,3.667-1.833s5.5-1.75,5.5,3s0,30.417,0,30.417s-0.083,3,2.917,3s15.5,0,15.5,0s2.666,0.249,2.666-2.667
		c0-2.917,0-35.833,0-35.833s-0.834-8.333-6.5-11.083s-7.667-3.25-12-3.25s-9,1.333-12.333,3.25s-2.333,1.417-2.333,1.417
		s-1.333,1.333-2.5-0.25s-2-2.083-2-2.083s-1.003-1.527-3.058-1.527h-9.526C810.327,28.132,807.494,27.576,807.494,31.493z"/>
	<path fill="#367ED4" stroke="#231F20" stroke-width="1.7008" stroke-miterlimit="10" d="M906.454,44.326V33.909
		c0,0,0.078-2.154-3.5-3.75c-3.172-1.415-7.294-3.051-14.518-3c-6.355-0.051-11.493,1-15.146,4.402c0,0-5.505,3.931-5.505,12.431
		c0,0-1.083,8.779,7.25,13.446c0,0,3.917,2.388,10.667,4.554c0,0,6.582,2.083,5.916,3.833c0,0,0.667,2.498-6.416,1.081
		c-2.947-0.589-5.178-1.438-7.132-2.095c-2.331-0.783-4.24-1.825-6.371-3.003c0,0-3.164-1.316-3.914,1.684s0.25,10.083,0.25,10.083
		s-0.001,3.667,3.833,4.917s7.666,3.166,17.25,2.833s14-2.499,17.167-6.25c3.167-3.75,4.667-6.583,4.667-9.5s0.667-9.584-7.5-14.167
		c0,0-9.315-4.343-12.815-5.593s-4.102-1.824-4.019-3.233c0.113-1.929,2-2.09,4-1.869c0.342,0.038,5.084,0.695,9.25,3.029
		l2.831,1.49C902.701,45.233,906.287,48.159,906.454,44.326z"/>
	<path fill="#367ED4" stroke="#231F20" stroke-width="1.7008" stroke-miterlimit="10" d="M583.779,27.34
		c-5.894,0.096-12.162,1.176-16.609,4.109c-7.38,4.868-11.216,13.686-11.216,22.787c0,7.922,2.914,16.074,8.729,20.997
		c5.093,4.311,12.578,5.908,19.979,5.908h0.083c5.5,0,11.706-2.148,13.706-3.731c0,0,0.986-0.526,1.188-2.667
		c0.302-3.17,1.04-11.701,1.04-11.701s-0.624-4.216-5.04-1.466s-13.002,6.083-18.336-1.583c-1.624-2.334-1.909-4.506-1.991-6.422
		c-0.184-4.376,2.213-7.415,2.907-7.995c1-0.833,6.338-6.25,15.754-0.417l2.5,1.5c0,0,3.749,3.167,4.416-1.25l-0.583-10.583
		c0,0-0.249-2.333-1.583-3.917c0,0-4.523-3.736-14.857-3.569L583.779,27.34L583.779,27.34z"/>
</g>
</svg>
